<svg xmlns="http://www.w3.org/2000/svg" width="512" height="512" viewBox="0 0 512 512">
  <path d="M453.5 256.676c0-20.46-3.165-40.263-8.9-58.82L356.423 426.69c58.082-34.365 97.075-97.618 97.075-170.014zM193.628 443.884c19.63 6.594 40.642 10.137 62.526 10.137 22.866 0 44.77-3.87 65.188-11.028L261.1 286.812l-67.47 157.072zM66.837 200.888c-5.212 17.684-8.06 36.403-8.06 55.787 0 73.954 40.715 138.393 100.895 172.155l-92.23-226.703-.605-1.24z"/>
  <path d="M167.383 188.16l-8.478-.38c-18.494-.306-16.446 18.894-16.446 18.894l65.617 164.577 44.114-105.37-24.626-62.7c-9.86-16.577-33.925-16.403-33.925-16.403v-8.734h137.973l-.205 9.687-14.356.89c-17.88 0-14.264 17.01-14.264 17.01l59.873 159.938 17.163-44.288c30.443-69.017 11.663-120.094 11.663-120.094-30.485-62.72 8.038-71.72 8.038-71.72 2.437-.35 4.72-.543 6.963-.646-36.2-42.537-90.122-69.52-150.323-69.52-81.398 0-151.316 49.327-181.474 119.707l92.365-.952.327 10.107z"/>
  <path d="M477.84 256.02c0 122.307-99.523 221.84-221.8 221.84-122.337 0-221.86-99.533-221.86-221.84 0-122.337 99.523-221.828 221.86-221.828 122.277.01 221.8 99.492 221.8 221.83zM256.04 23.973c-127.938 0-232.047 104.11-232.047 232.06s104.11 232.006 232.048 232.006C383.96 488.038 488 383.978 488 256.03c0-127.948-104.038-232.058-231.957-232.058z"/>
</svg>
