<svg baseProfile="tiny" xmlns="http://www.w3.org/2000/svg" width="263" height="176" viewBox="0 0 263 176">
  <path fill="none" stroke="#000" stroke-width="3" stroke-miterlimit="10" d="M256.444 155.492c0 6.627-5.372 12-12 12h-49.96c-6.626 0-12-5.373-12-12v-49.958c0-6.627 5.374-12 12-12h49.96c6.628 0 12 5.373 12 12v49.958z"/>
  <path d="M217.643 115.482l26.007 15.03-26.007 15.03"/>
  <path fill="none" stroke="#000" stroke-width="3" stroke-miterlimit="10" d="M82.944 155.492c0 6.627-5.372 12-12 12h-49.96c-6.626 0-12-5.373-12-12v-49.958c0-6.627 5.374-12 12-12h49.96c6.628 0 12 5.373 12 12v49.958z"/>
  <path d="M47.798 145.542l-26.008-15.03 26.008-15.03"/>
  <g>
    <path fill="none" stroke="#000" stroke-width="3" stroke-miterlimit="10" d="M169.484 69.17c0 6.626-5.373 12-12 12h-49.96c-6.626 0-12-5.374-12-12V19.21c0-6.627 5.374-12 12-12h49.96c6.627 0 12 5.373 12 12v49.96z"/>
    <path d="M117.475 46.232l15.03-26.008 15.03 26.008"/>
  </g>
  <g>
    <path fill="none" stroke="#000" stroke-width="3" stroke-miterlimit="10" d="M169.694 155.626c0 6.627-5.373 12-12 12h-49.96c-6.626 0-12-5.373-12-12v-49.958c0-6.627 5.374-12 12-12h49.96c6.627 0 12 5.373 12 12v49.958z"/>
    <path d="M147.745 128.802l-15.03 26.008-15.03-26.008"/>
  </g>
</svg>
