<svg baseProfile="tiny" height="512" version="1.2" viewBox="0 0 512 512" width="512" xmlns="http://www.w3.org/2000/svg">
  <path d="M297.036 205.578l-36.334 33.81-33.716-68.006 17.446-39.108c4.416-7.84 11.62-7.855 16.037 0l36.566 73.304z" fill="#FFA000"/>
  <path fill="#F57F17" d="M260.702 239.386l-135.778 126.31 102.062-194.315"/>
  <path d="M336.776 153.9c6.49-6.238 13.202-4.11 14.912 4.73l35.342 205.375-117.157 70.215c-4.1 2.264-14.957 3.246-14.957 3.246s-9.91-1.185-13.687-3.28L124.92 365.69 336.776 153.9z" fill="#FFCA28"/>
  <path d="M226.986 171.38L124.924 365.698 170.384 81.7c1.674-8.848 6.71-9.7 11.203-1.89l45.4 91.57z" fill="#FFA000"/>
</svg>
