<svg height="135.099" viewBox="0 0 136 135.099" width="136" xmlns="http://www.w3.org/2000/svg">
  <path d="M4.667 67.55C4.667 32.57 33.022 4.214 68 4.214c34.978 0 63.333 28.354 63.333 63.334 0 34.975-28.355 63.332-63.334 63.332-34.978 0-63.333-28.357-63.333-63.333z" fill="#284A9F"/>
  <path d="M112.966 22.947c24.733 24.734 24.735 64.833 0 89.568-24.732 24.732-64.834 24.732-89.568 0l89.568-89.568z" fill="#24488E"/>
  <path d="M129.405 83.09L84.74 38.423l-9.076 9.075-19.33-2.664 1.996 19.998-9.407 9.407 19.003 19 .33 12.998L89.24 127.22c19.75-7.03 34.98-23.578 40.165-44.13z" fill="#1E3F77"/>
  <path d="M92.617 50.71c-.263-.99-.798-2.04-1.193-2.962-4.738-11.384-15.088-15.464-23.445-15.464-11.19 0-23.512 7.5-25.157 22.966v3.16c0 .13.045 1.314.11 1.907.923 7.37 6.737 15.202 11.08 22.57 4.672 7.897 9.52 15.663 14.325 23.43 2.96-5.067 5.912-10.2 8.807-15.138.79-1.448 1.705-2.896 2.495-4.277.525-.92 1.53-1.843 1.99-2.698C86.304 75.65 93.824 67.03 93.824 58.54v-3.488c0-.92-1.14-4.145-1.206-4.343zM68.183 66.567c-3.29 0-6.888-1.645-8.665-6.186-.265-.723-.244-2.17-.244-2.304v-2.04c0-5.79 4.917-8.423 9.193-8.423 5.265 0 9.336 4.21 9.336 9.476 0 5.268-4.356 9.478-9.62 9.478z" fill="#FFF"/>
</svg>
